# xmcd
#
# Track frame offsets: 
#        150
#        15723
#        30321
#        42369
#        59067
#        71640
#        86463
#        94161
#        109509
#        120432
#        135705
#        144528
#
# Disc length: 2194 seconds
#
# Revision: 0
# Processed by: cddbd v1.5.2PL0 Copyright (c) Steve Scherf et al.
# Submitted via: ExactAudioCopy v0.99pb4
#
DISCID=9f08900c
DTITLE=David Hartley - Orange Blossom Special
DYEAR=2007
DGENRE=Steel
TTITLE0=orange blossom special_Master
TTITLE1=highway 40 blues_Master
TTITLE2=just between_Master
TTITLE3=one more for the road_Master
TTITLE4=buckaroo steel medley_Master
TTITLE5=in between dances_Master
TTITLE6=stealin' corn_Master
TTITLE7=wichita lineman_Master
TTITLE8=bye bye love_Master
TTITLE9=third rate romance_Master
TTITLE10=hey good lookin'_Master
TTITLE11=angels_Master
EXTD=
EXTT0=
EXTT1=
EXTT2=
EXTT3=
EXTT4=
EXTT5=
EXTT6=
EXTT7=
EXTT8=
EXTT9=
EXTT10=
EXTT11=
PLAYORDER=
